<svg width="624" height="899" viewBox="0 0 624 899" fill="none" xmlns="http://www.w3.org/2000/svg">
<path d="M415.875 814.3H207.938C188.807 814.3 173.281 798.777 173.281 779.65C173.281 760.523 188.807 745 207.938 745H415.875C435.005 745 450.531 760.523 450.531 779.65C450.531 798.777 435.005 814.3 415.875 814.3Z" fill="#FCFCFC"/>
<path d="M396.875 899H228.125C212.6 899 200 883.544 200 864.5C200 845.456 212.6 830 228.125 830H396.875C412.4 830 425 845.456 425 864.5C425 883.544 412.4 899 396.875 899Z" fill="#FCFCFC"/>
<path d="M451.987 635.897C451.987 639.708 462.5 735 382.535 719C382.535 715.743 381.6 639.05 382.535 635.897C385.412 585.758 410.78 539.362 451.848 509.944C451.917 509.909 451.952 509.875 451.987 509.84C513.987 465.869 554.5 393.555 554.5 311.85C554.5 177.997 445.783 69.3 311.906 69.3C178.029 69.3 69.3125 177.997 69.3125 311.85C69.3125 393.416 109.687 465.627 172.068 508.766C172.241 508.905 172.38 509.009 172.519 509.112C216.497 540.575 242.594 591.337 242.594 645.391V645.46V726.1C159.176 737.45 173.281 690.817 173.281 645.426C173.281 613.755 157.997 584.026 132.282 565.523C52.0185 509.84 0 416.874 0 311.85C0 139.743 139.769 0 311.906 0C484.044 0 623.812 139.743 623.812 311.85C623.812 416.874 571.794 509.84 492.223 566.25C466.716 584.545 451.987 604.504 451.987 635.897Z" fill="#FCFCFC"/>
</svg>
