<svg width="444" height="440" fill="none" xmlns="http://www.w3.org/2000/svg"><g clip-path="url(#clip0)"><path d="M338.589 0c2.297 39.473-6.489 108.6-6.489 108.6l-78.2 22.6-34-7.7S221.947 68.012 200.234 0h138.355z" fill="#7B9CDE"/><path d="M219.9 123.5c-.4 18.3-2.2 36.3-5.2 53.9 43.3-12.2 89.1-18.8 136.3-18.8h4.1c-16.6-18.5-31.4-38.7-43.9-60.4-32 4.5-62.6 13.1-91.3 25.3z" fill="#ACB1B3"/><path d="M378.8 95.3c-5.9-.3-11.8-.4-17.7-.4-16.9 0-33.6 1.2-49.9 3.4 12.6 21.6 27.3 41.9 43.9 60.4h1.6c1-23.7 9.1-45.5 22.1-63.4z" fill="#7B9CDE"/><path d="M444 276.993V440H17.99C119.91 389.779 194.762 292.965 214.7 177.4c43.3-12.2 89-18.8 136.3-18.8h4.1c.25.3.5.575.75.85s.5.55.75.85c-.1 1.2-.1 2.399-.1 3.599v.001c0 54.381 37.178 100.09 87.5 113.093z" fill="#FFDAA3"/><path d="M275.1 11.7c36.3 12.2 75.2 18.9 115.7 18.9a364.03 364.03 0 0 0 53.2-3.892v24.208c-26.579 6.88-49.525 22.894-65.2 44.484-5.9-.3-11.8-.4-17.7-.4-16.9 0-33.6 1.1-49.9 3.4-15.6-26.9-27.8-56-36.1-86.7z" fill="#ACB1B3"/><path d="M66.1 247.6c44.8-31.1 94.9-55 148.6-70.2 3-17.6 4.8-35.6 5.2-53.9-62.1 26.4-115.3 69.7-153.8 124.1z" fill="#CA6F30"/><path d="M17.275 440H.255c3.083-71.67 27.07-137.911 65.945-192.8 44.8-31.1 94.8-55 148.6-70.2-19.991 115.873-95.188 212.895-197.525 263z" fill="#7B9CDE"/><path d="M444 230.614v46.38c-50.322-13.003-87.5-58.712-87.5-113.094 0-.6.025-1.2.05-1.8.025-.6.05-1.2.05-1.8 25.23 27.709 54.709 51.504 87.4 70.314zm0-179.81v53.662a361.952 361.952 0 0 0-65.2-9.166c15.683-21.602 38.591-37.621 65.2-44.495z" fill="#CA6F30"/><path d="M444 104.396v62.884c-28.361-5.316-57.568-8.245-87.4-8.58 1.1-23.7 9.1-45.5 22.2-63.4a360.658 360.658 0 0 1 65.2 9.096z" fill="#ACB1B3"/><path d="M444 167.275v63.388a362.782 362.782 0 0 1-87.4-70.263c.1-.6.1-1.1.1-1.7 29.786.335 58.961 3.262 87.3 8.575z" fill="#0A723B"/><path d="M444 26.71V0H272.128a349.47 349.47 0 0 0 2.972 11.7c36.3 12.3 75.3 18.9 115.7 18.9a364.24 364.24 0 0 0 53.2-3.89z" fill="#FFDAA3"/></g><defs><clipPath id="clip0"><path fill="#fff" d="M0 0H444V440H0z"/></clipPath></defs></svg>