<svg width="295" height="307" fill="none" xmlns="http://www.w3.org/2000/svg"><g clip-path="url(#clip0)"><path d="M391.981 282.923L406 261.534l-22.174-137.698c-5.223.184-44.347 93.268-44.347 93.268l2.107-24.327c.55-6.518-3.115-12.852-9.163-15.33-.091 0-.091 0-.183-.092-4.581-2.02-9.163-2.479-13.652-1.285l-1.1.275c-6.689 2.02-11.637 7.803-13.011 14.688L297.33 226.1c-1.741 2.846-8.155 12.484-36.009 25.244-27.855 12.76-25.564 31.487-25.564 31.487v9.456h150.451l5.773-9.364zm-357.896 3.121s-23.09-28.641-21.99-51.774c.275-6.151 4.306-11.658 10.17-13.403 7.514-2.295 18.6 1.194 28.588 30.661v-61.872c0-3.672.733-7.252 2.29-10.557 3.116-6.426 8.43-10.006 15.394-11.199 2.2-.368 4.49-.459 6.689 0 10.262 1.927 13.927 11.842 14.569 25.336a55.984 55.984 0 0 1 4.58-5.508c3.94-3.947 9.622-5.967 15.119-5.049 6.323 1.01 9.988 5.141 12.737 10.649 3.573 7.16 7.055 14.412 11.086 21.389-.274-1.377-.549-2.846-.824-4.223-.733-3.764-1.558-7.436-2.291-11.199-1.099-5.325-2.107-10.557-3.207-15.881-1.191-6.059-2.474-12.026-3.665-18.085-1.191-5.967-2.474-12.025-3.665-17.992-1.1-5.233-2.107-10.374-3.207-15.606-.733-3.58-1.466-7.252-2.199-10.832a33.919 33.919 0 0 0-.641-2.938c-1.192-5.141-.825-10.648.733-15.697.183-.643.366-1.194.641-1.836.733-1.928 1.741-3.856 3.024-5.416 2.107-2.57 5.406-4.04 8.796-4.223 5.772-.276 12.461 2.937 14.477 8.72l42.24 125.306s7.239-5.508 12.92-44.431c0 0 1.924-22.582 20.616-20.471 18.692 2.111 18.783 77.478 6.23 101.713-4.581 8.904-8.979 17.625-13.011 23.225v7.803H34.544l-.459-6.61z" fill="#FF5C5C"/><path d="M386.209 292.47H0v26.622h386.209V292.47z" fill="#4EB2FE"/><path d="M386.209 292.47H0v2.203h386.209v-2.203z" fill="#54CBFE"/><path d="M13.286 292.47v-5.967l74.95-1.56v7.527" fill="#8931FA"/><path d="M13.286 292.47v-2.203l74.95-.551v2.754" fill="#5A20A3"/><path d="M97.583 292.47v-6.793l75.318-1.744.733 8.537" fill="#8931FA"/><path d="M97.583 292.47l.092-2.387 75.684-.367.275 2.754" fill="#5A20A3"/><path d="M180.872 292.47v-8.537h73.485l1.008 8.537" fill="#8931FA"/><path d="M180.872 292.47v-2.662l74.035-.092.458 2.754" fill="#5A20A3"/><path d="M260.496 292.47v-8.537h74.401l1.283 8.537" fill="#8931FA"/><path d="M260.496 292.47v-2.754l75.043-1.469.641 4.223" fill="#5A20A3"/><path d="M231.542 196.357l-1.741-1.193c-4.032-2.662-6.414-7.069-6.506-11.934l-.366-20.012s7.147 7.619 8.613 33.139z" fill="#fff" stroke="#2E2E2E" stroke-miterlimit="10" stroke-linecap="round" stroke-linejoin="round"/><path d="M224.303 188.279h6.506m-77.242 59.394s7.239-19.186 29.962-23.134m-61.573-93.175s8.43-7.803 17.134-6.61m-5.589 61.781s8.155-11.383 24.464-9.088" stroke="#2E2E2E" stroke-miterlimit="10" stroke-linecap="round" stroke-linejoin="round"/><path d="M34.085 286.044c-.366-4.314-1.19-11.199 2.29-14.228 2.475-2.112 5.498-2.479 8.614-2.295 5.04.275 10.537 2.019 14.202 5.507 3.024 2.938 5.131 6.794 7.147 10.466" fill="#fff"/><path d="M34.085 286.044c-.366-4.314-1.19-11.199 2.29-14.228 2.475-2.112 5.498-2.479 8.614-2.295 5.04.275 10.537 2.019 14.202 5.507 3.024 2.938 5.131 6.794 7.147 10.466" stroke="#2E2E2E" stroke-miterlimit="10" stroke-linecap="round" stroke-linejoin="round"/><path d="M72.202 273.56h-1.1c-7.788-.459-13.927-7.069-14.385-14.872l-.916-16.891c-.367-6.425 4.765-11.75 11.087-11.75h10.354c6.414 0 11.453 5.416 11.087 11.75l-.825 14.596c-.55 10.465-7.147 17.167-15.302 17.167zm40.225 1.468c-1.833-5.232-1.558-12.117 1.649-16.431 3.39-4.59 9.621-6.426 15.027-7.161 5.772-.826 11.087 1.194 14.477 5.967 2.84 3.947 4.581 9.272 5.314 14.045.367 2.204.367 4.682-.091 6.885-.275 1.01-1.741 5.967-3.116 5.967l-25.839.826c-2.29 0-5.497-6.15-6.414-7.711a18.522 18.522 0 0 1-1.007-2.387z" fill="#fff" stroke="#2E2E2E" stroke-miterlimit="10" stroke-linecap="round" stroke-linejoin="round"/><path d="M55.801 241.614s16.035 3.396 32.436 0m23.09 25.061s19.333-1.561 29.87-11.842m-7.971-40.208s21.807 47.735 15.943 58.935m-59.466-80.324s9.53 72.337-9.621 77.937m12.003-53.06s15.21 50.49 19.242 54.253m163.188-17.717s12.461-2.111 21.257 7.069" stroke="#2E2E2E" stroke-miterlimit="10" stroke-linecap="round" stroke-linejoin="round"/><path d="M278.821 283.933c-6.688-24.235 15.76-22.215 15.76-22.215s1.558 0 1.65 1.468c.183 2.02 1.007 8.171 3.848 10.374 0 0-.092 6.701-2.199 10.465h-19.059v-.092z" fill="#fff" stroke="#2E2E2E" stroke-miterlimit="10" stroke-linecap="round" stroke-linejoin="round"/><path d="M285.235 263.278s2.474 12.485-1.649 20.747" stroke="#2E2E2E" stroke-miterlimit="10" stroke-linecap="round" stroke-linejoin="round"/><path d="M118.84 78.212l-9.346-26.346m15.852 25.061l.825-10.924m5.681 12.393l12.919-24.786m-35.46 35.985l-26.755-7.894m29.596 1.836l-9.713-8.17" stroke="#fff" stroke-width="2" stroke-miterlimit="10" stroke-linecap="round" stroke-linejoin="round"/></g><defs><clipPath id="clip0"><path fill="#fff" d="M0 0H406V319H0z"/></clipPath></defs></svg>