<svg width="73" height="58" viewBox="0 0 73 58" fill="none" xmlns="http://www.w3.org/2000/svg">
<path d="M46.1738 33.8532C48.5585 31.2222 50.0337 27.6515 50.0337 23.7143C50.0337 15.6592 43.8834 9.10449 36.319 9.10449C28.7574 9.10449 22.6012 15.6562 22.6012 23.7143C22.6012 27.6512 24.0794 31.2219 26.4641 33.8532C21.6248 35.5641 18.0996 40.379 18.0996 46.1015V49.2672C18.0996 53.0971 20.6911 56.3276 24.2621 56.9529C28.2315 57.6463 32.2863 57.9995 36.3221 57.9995C40.3554 57.9995 44.4133 57.6463 48.3821 56.9529C51.953 56.3276 54.5446 53.0971 54.5446 49.2672V46.1015C54.5385 40.3793 51.0131 35.5645 46.1738 33.8532ZM36.319 14.2888C41.1978 14.2888 45.167 18.5173 45.167 23.7143C45.167 28.9114 41.1976 33.1399 36.319 33.1399C31.4404 33.1399 27.4679 28.9114 27.4679 23.7143C27.4679 18.5173 31.4403 14.2888 36.319 14.2888ZM49.6716 49.2635C49.6716 50.5402 48.7956 51.6225 47.588 51.8331C40.1694 53.1356 32.4647 53.1356 25.0495 51.8331C23.8419 51.6192 22.9659 50.5402 22.9659 49.2635V46.0979C22.9659 41.8111 26.2418 38.3214 30.2659 38.3214H42.375C46.3992 38.3214 49.675 41.8111 49.675 46.0979V49.2635H49.6716Z" fill="black"/>
<path d="M12.1667 29.2395H16.7171C18.0616 29.2395 19.1504 28.0795 19.1504 26.6473C19.1504 25.3934 18.1862 24.1459 17.0213 23.9741C12.6595 23.3358 9.36538 19.3147 9.36538 14.6199C9.36538 9.41617 13.3378 5.18443 18.2227 5.18443C20.4553 5.18443 22.5785 6.07547 24.1966 7.69555C25.176 8.6741 26.7151 8.6255 27.6368 7.58214C28.5554 6.53881 28.5067 4.89923 27.5303 3.91745C25.0088 1.39006 21.7024 0 18.226 0C10.6583 0 4.50195 6.55813 4.50195 14.6198C4.50195 18.5275 6.00455 22.0982 8.41352 24.7521C3.54684 26.4499 0 31.2746 0 37.0161V40.1785C0 44.0085 2.58541 47.2422 6.16247 47.8708C8.09092 48.198 9.98892 48.4475 11.8078 48.616C11.8778 48.6225 11.9508 48.6257 12.0207 48.6257C13.2679 48.6257 14.3324 47.6083 14.4419 46.2604C14.5575 44.8346 13.569 43.5774 12.2307 43.4543C10.5243 43.2923 8.74184 43.059 6.94117 42.7512C5.73968 42.5406 4.86671 41.4616 4.86671 40.1785V37.016C4.86671 32.726 8.14256 29.2395 12.1667 29.2395Z" fill="black"/>
<path d="M64.6231 24.762C67.0199 22.1212 68.4982 18.5538 68.4982 14.6198C68.4982 6.55814 62.3419 0 54.7742 0C51.1728 0 47.7996 1.46132 45.2783 4.11503C44.3232 5.11946 44.311 6.76227 45.257 7.77973C46.2029 8.80042 47.742 8.80689 48.6972 7.80241C50.3032 6.11099 52.4627 5.18105 54.7744 5.18105C59.6593 5.18105 63.6318 9.41279 63.6318 14.6165C63.6318 19.4574 60.216 23.5012 55.6839 24.0163C54.3943 24.1621 53.3753 25.5652 53.5335 26.9034C53.6612 28.2059 54.6589 29.2363 55.9182 29.2363L60.8335 29.2396C64.8577 29.2396 68.1335 32.7292 68.1335 37.0161V40.1785C68.1335 41.4584 67.2606 42.5439 66.0652 42.7513C64.2341 43.0688 62.33 43.3118 60.4138 43.4803C59.0754 43.597 58.0778 44.8476 58.1873 46.2734C58.2907 47.6278 59.3553 48.6517 60.6115 48.6517C60.6784 48.6517 60.7453 48.6485 60.8123 48.6452C62.8532 48.4702 64.882 48.2078 66.85 47.8676C70.4148 47.2422 73.0002 44.0085 73.0002 40.1786V37.0161C73.0002 31.2875 69.4686 26.4691 64.6231 24.762Z" fill="black"/>
</svg>
