<svg width="25" height="62" viewBox="0 0 25 62" fill="none" xmlns="http://www.w3.org/2000/svg">
<path d="M10.6676 1.36096L10.6676 20.0507C7.71801 20.3914 5.00872 21.675 3.04566 23.6618C1.08261 25.6485 0 28.2027 0 30.8472C0 33.4917 1.08261 36.0459 3.04566 38.0326C5.00872 40.0194 7.71801 41.303 10.6676 41.6437L10.6676 60.3334C10.6676 60.6944 10.8289 61.0405 11.1159 61.2957C11.403 61.551 11.7923 61.6943 12.1982 61.6943C12.6042 61.6943 12.9935 61.551 13.2806 61.2957C13.5676 61.0405 13.7289 60.6944 13.7289 60.3334L13.7289 41.6437C16.6785 41.303 19.3878 40.0194 21.3508 38.0326C23.3139 36.0459 24.3965 33.4917 24.3965 30.8472C24.3965 28.2027 23.3139 25.6485 21.3508 23.6618C19.3878 21.675 16.6785 20.3914 13.7289 20.0507L13.7289 1.36096C13.7289 1.00003 13.5676 0.653877 13.2806 0.398658C12.9935 0.143439 12.6042 6.00815e-05 12.1982 6.00815e-05C11.7923 6.00815e-05 11.403 0.143439 11.1159 0.398658C10.8289 0.653877 10.6676 1.00003 10.6676 1.36096Z" fill="black"/>
</svg>
