<svg width="503" height="503" viewBox="0 0 503 503" fill="none" xmlns="http://www.w3.org/2000/svg">
<circle cx="251.5" cy="251.5" r="251.5" fill="#190736"/>
<path d="M235.095 277C232.545 277 230.846 276.148 229.146 274.444C218.949 264.219 213 250.586 213 236.101C213 221.615 218.949 207.982 229.146 197.757L277.585 149.189C287.782 138.964 301.379 133 315.825 133C330.272 133 343.869 138.964 354.066 149.189C375.311 170.491 375.311 204.574 354.066 225.876L331.972 248.03C328.572 251.438 323.474 251.438 320.074 248.03C316.675 244.621 316.675 239.509 320.074 236.101L342.169 213.947C356.616 199.462 356.616 175.604 342.169 161.118C335.371 154.302 326.023 150.041 315.825 150.041C305.628 150.041 296.28 154.302 289.482 161.118L241.043 209.686C234.245 216.503 229.996 225.876 229.996 236.101C229.996 246.325 234.245 255.698 241.043 262.515C244.442 265.923 244.442 271.035 241.043 274.444C239.344 276.148 237.644 277 235.095 277Z" fill="white"/>
<path d="M186.314 371C172.735 371 158.308 365.888 148.124 354.811C137.941 344.586 132 330.953 132 316.467C132 301.982 137.941 288.349 148.124 278.124L170.189 255.97C173.584 252.562 178.676 252.562 182.07 255.97C185.465 259.379 185.465 264.491 182.07 267.899L160.005 290.053C153.216 296.87 148.973 306.243 148.973 316.467C148.973 326.692 153.216 336.065 160.005 342.882C174.432 357.367 198.195 357.367 212.622 342.882L260.995 294.314C267.784 287.497 272.027 278.124 272.027 267.899C272.027 257.675 267.784 248.302 260.995 241.485C257.6 238.077 257.6 232.964 260.995 229.556C264.389 226.148 269.481 226.148 272.876 229.556C283.059 239.781 289 253.414 289 267.899C289 282.385 283.059 296.018 272.876 306.243L224.503 354.811C214.319 365.036 199.892 371 186.314 371Z" fill="white"/>
</svg>
