<svg width="24" height="24" viewBox="0 0 24 24" fill="none" xmlns="http://www.w3.org/2000/svg">
<path d="M7.06138 3.21518L2.62157 11.3283C2.2645 11.9808 2.43952 12.7964 3.03285 13.2449L7.48396 16.6099C7.80898 16.8556 8 17.2395 8 17.6469V20.5C8 21.3284 8.67157 22 9.5 22H13.5C14.3284 22 15 21.3284 15 20.5V17.6469C15 17.2395 15.191 16.8556 15.516 16.6099L19.9671 13.2449C20.5605 12.7964 20.7355 11.9808 20.3784 11.3283L15.9386 3.21519C15.6901 2.7611 15 2.93758 15 3.45522V9C15 10.1046 14.1046 11 13 11H10C8.89543 11 8 10.1046 8 9V3.45521C8 2.93758 7.30988 2.7611 7.06138 3.21518Z" fill="#688A6F"/>
</svg>
