<svg width="47" height="50" viewBox="0 0 47 50" fill="none" xmlns="http://www.w3.org/2000/svg">
<path fill-rule="evenodd" clip-rule="evenodd" d="M9.63185 0C4.31233 0 0 4.30496 0 9.61538V40.3846C0 45.695 4.31233 50 9.63185 50H42.2884C44.467 50 46.2329 48.2371 46.2329 46.0623V32.6923V5.76923C46.2329 2.58298 43.6456 0 40.4538 0H9.63185ZM42.3801 34.6154H9.63185C7.18 34.6154 5.08477 36.1396 4.24514 38.2908C4.10005 38.7265 4.00635 39.1429 3.94692 39.4988C3.89801 39.7919 3.87428 40.0319 3.86289 40.1912C3.85723 40.2704 3.85467 40.3287 3.85355 40.3623L3.85274 40.3927C3.85715 43.5752 6.44286 46.1538 9.63185 46.1538H42.2884C42.3391 46.1538 42.3801 46.1129 42.3801 46.0623V34.6154ZM42.3801 30.7692V5.76923C42.3801 4.70713 41.5177 3.84615 40.4538 3.84615H9.63185C6.44014 3.84615 3.85274 6.42913 3.85274 9.61538V32.4713C3.93617 32.4112 4.02143 32.3521 4.10856 32.294C5.54274 31.3396 7.3684 30.7692 9.63185 30.7692H42.3801Z" fill="black"/>
</svg>
