<svg width="102" height="82" viewBox="0 0 102 82" fill="none" xmlns="http://www.w3.org/2000/svg">
<path d="M2.48755 53.0207C0.876508 51.4734 0.0437518 49.415 0.00163668 47.3426C-0.0399169 45.2707 0.709733 43.1798 2.2562 41.5684C3.80154 39.9582 5.85957 39.1248 7.93107 39.0832C10.0037 39.0405 12.0932 39.788 13.7053 41.3365L35.4144 62.5162L88.1941 2.24003L89.1869 2.99768L88.193 2.23666C88.2722 2.13388 88.362 2.04627 88.462 1.97494C90.1106 0.546705 92.1799 -0.0980514 94.2025 0.012029V0.00978242L94.3014 0.0187686C96.3358 0.153561 98.3231 1.05779 99.7904 2.69552C101.283 4.36077 101.96 6.47588 101.847 8.54326H101.849L101.84 8.64211C101.707 10.6404 100.834 12.5932 99.2519 14.0518L40.927 79.6085L40.9292 79.6107C40.8669 79.6899 40.7967 79.7578 40.7203 79.8174C39.1632 81.185 37.1967 81.8556 35.2414 81.8219C33.2699 81.7876 31.3023 81.0378 29.7715 79.5663L2.48755 53.0207Z" fill="#0D8B78"/>
</svg>
